<svg width="160" height="40" viewBox="0 0 160 40" fill="none" xmlns="http://www.w3.org/2000/svg">
<g clip-path="url(#clip0_644_2239)">
<path fill-rule="evenodd" clip-rule="evenodd" d="M112.392 12.5898C115.24 16.5017 118.179 20.3532 121.211 24.1445C121.225 24.2676 121.3 24.343 121.437 24.3711C121.664 17.4249 121.739 10.4769 121.664 3.52734C121.792 2.52775 122.32 1.81045 123.247 1.375C124.603 1.22388 125.96 1.22388 127.317 1.375C128.033 1.79028 128.599 2.35669 129.013 3.07421C129.126 14.1756 129.164 25.2771 129.126 36.3789C128.684 37.1991 128.082 37.8787 127.317 38.418C126.047 38.6611 124.766 38.6989 123.473 38.5312C122.884 38.3312 122.394 37.9913 122.003 37.5117C121.404 36.4978 120.687 35.5916 119.854 34.793C118.456 32.7457 116.948 30.7821 115.332 28.9023C112.019 24.3768 108.627 19.9209 105.155 15.5352C105.091 15.3564 104.978 15.2053 104.816 15.082C104.703 21.9541 104.665 28.8264 104.703 35.6992C104.288 37.8556 102.969 38.8373 100.746 38.6445C100.094 38.6205 99.4527 38.5451 98.8236 38.418C98.0672 38.1506 97.5774 37.622 97.3537 36.832C97.2029 25.5039 97.2029 14.1758 97.3537 2.84765C97.5034 2.51143 97.692 2.20943 97.9191 1.9414C99.7594 1.07752 101.644 1.03968 103.573 1.82812C106.567 5.3924 109.507 8.97957 112.392 12.5898Z" fill="#1E1E1E"/>
<path fill-rule="evenodd" clip-rule="evenodd" d="M33.6958 1.26172C41.3094 1.22388 48.9228 1.26172 56.5358 1.375C57.5179 1.60383 58.2341 2.17024 58.6841 3.07422C58.7969 4.12887 58.8347 5.18601 58.7972 6.2461C58.6683 7.24569 58.1407 7.96299 57.2142 8.39844C51.1089 8.51172 45.0032 8.54956 38.897 8.51172C38.897 11.0794 38.897 13.6472 38.897 16.2148C43.571 16.177 48.2446 16.2148 52.9176 16.3281C54.5143 16.8895 55.1927 18.0224 54.9528 19.7266C55.1649 21.5717 54.411 22.7802 52.6914 23.3516C48.0938 23.4648 43.4957 23.5027 38.897 23.4648C38.897 26.0325 38.897 28.6003 38.897 31.168C44.8523 31.1301 50.8075 31.168 56.7619 31.2813C57.6156 31.608 58.2562 32.1744 58.6841 32.9805C58.8349 34.1887 58.8349 35.3972 58.6841 36.6055C58.4654 37.3126 58.0509 37.8411 57.4403 38.1914C57.0028 38.3387 56.5505 38.4141 56.0835 38.418C48.4699 38.4558 40.8565 38.418 33.2435 38.3047C32.6395 38.0215 32.1497 37.6062 31.7736 37.0586C31.3989 25.9004 31.3236 14.7232 31.5475 3.52734C31.9989 2.50895 32.7151 1.75381 33.6958 1.26172Z" fill="#1E1E1E"/>
<path fill-rule="evenodd" clip-rule="evenodd" d="M2.26265 1.26172C7.46383 1.26172 12.665 1.26172 17.8662 1.26172C19.4973 1.57619 21.0803 2.06715 22.6151 2.73438C23.9249 3.63134 25.1311 4.65087 26.2333 5.79297C26.7206 6.61743 27.2107 7.44823 27.7032 8.28516C29.8343 14.93 27.9875 20.1409 22.1628 23.918C24.2358 27.6184 26.3086 31.3191 28.3816 35.0195C28.8986 36.857 28.2577 37.9898 26.4594 38.418C25.0253 38.4556 23.5931 38.418 22.1628 38.3047C21.3182 37.7779 20.7153 37.0606 20.3537 36.1523C18.5358 32.5863 16.6514 29.0367 14.7003 25.5039C12.2928 25.2776 9.88057 25.2021 7.46383 25.2773C7.5016 29.0541 7.46383 32.8303 7.35076 36.6055C7.01155 37.5496 6.3709 38.1914 5.42859 38.5313C4.37591 38.6443 3.32075 38.6821 2.26265 38.6445C1.12608 38.261 0.372363 37.5058 0.00127052 36.3789C-0.0364946 31.0164 0.00127052 25.6543 0.11434 20.293C0.571591 19.2689 1.28777 18.5138 2.26265 18.0273C7.53981 18.0652 12.8163 18.0273 18.0923 17.9141C20.7282 16.9018 21.8966 14.976 21.5975 12.1367C21.0319 10.2483 19.7881 9.11551 17.8662 8.73828C12.4773 8.54978 7.05 8.4365 1.58424 8.39844C0.230348 7.58304 -0.297458 6.37478 0.00127052 4.77344C-0.309669 3.24391 0.217911 2.14894 1.58424 1.48828C1.78573 1.35008 2.01187 1.27463 2.26265 1.26172Z" fill="#1E1E1E"/>
<path fill-rule="evenodd" clip-rule="evenodd" d="M68.5211 1.71484C68.6719 2.16796 68.8225 2.62109 68.9734 3.07421C68.8983 5.19416 68.9738 7.30867 69.1995 9.41796C69.3368 9.38987 69.4121 9.31443 69.4256 9.1914C70.5681 8.35607 71.8494 7.82727 73.27 7.60546C73.6092 7.60546 74.853 7.15234 74.853 7.15234C77.3678 7.03022 79.8554 7.21918 82.3155 7.71875C83.5283 8.23599 84.7343 8.72695 85.9337 9.1914C85.6893 7.16027 85.6515 5.12121 85.8207 3.07421C86.1549 2.36235 86.6449 1.79595 87.2906 1.375C88.4966 1.22388 89.7028 1.22388 90.9088 1.375C91.6388 1.72911 92.1288 2.29552 92.3787 3.07421C92.454 7.60546 92.5295 12.1367 92.6048 16.668C93.2346 17.9628 93.6491 19.3221 93.8486 20.7461C94.15 22.7097 94.15 24.6731 93.8486 26.6367C92.4436 32.7247 88.8254 36.8028 82.9939 38.8711C82.3863 38.8339 81.7832 38.8718 81.1848 38.9844C81.3106 39.0711 81.3859 39.1844 81.411 39.3242C74.1666 40.7896 68.2493 38.6751 63.6591 32.9805C60.3966 27.608 59.9821 22.0194 62.4154 16.2148C62.6035 11.7223 62.7166 7.19108 62.7546 2.62109C63.0185 2.05468 63.433 1.63939 63.9983 1.375C65.5555 1.15115 67.0632 1.26443 68.5211 1.71484Z" fill="#D81F1F"/>
<path fill-rule="evenodd" clip-rule="evenodd" d="M157.62 1.26172C159.266 1.95432 159.945 3.20042 159.655 5C159.984 6.79868 159.306 7.96933 157.62 8.51172C151.665 8.51172 145.71 8.51172 139.755 8.51172C139.68 11.1199 139.756 13.6878 139.981 16.2148C144.655 16.177 149.328 16.2148 154.001 16.3281C155.424 16.9627 156.028 18.0579 155.81 19.6133C156.127 21.4256 155.449 22.6716 153.775 23.3516C149.178 23.4648 144.58 23.5027 139.981 23.4648C139.756 26.0676 139.68 28.7109 139.755 31.3945C145.71 31.3945 151.665 31.3945 157.62 31.3945C158.008 31.4238 158.385 31.4992 158.75 31.6211C159.127 32.038 159.467 32.4911 159.768 32.9805C159.919 34.1887 159.919 35.3972 159.768 36.6055C159.309 37.3287 158.744 37.9329 158.072 38.418C150.232 38.418 142.393 38.418 134.553 38.418C133.547 37.9932 132.906 37.238 132.631 36.1523C132.518 25.353 132.48 14.5537 132.518 3.75391C132.518 3.67846 132.518 3.60279 132.518 3.52734C132.848 2.40427 133.602 1.68698 134.78 1.375C142.393 1.26172 150.006 1.22388 157.62 1.26172Z" fill="#1E1E1E"/>
<path fill-rule="evenodd" clip-rule="evenodd" d="M63.0938 4.88672C63.3947 6.6172 63.5456 8.4297 63.546 10.3242C63.4707 12.1367 63.3952 13.9492 63.3199 15.7617C63.094 12.1399 63.0185 8.51489 63.0938 4.88672Z" fill="#FF3D48"/>
<path fill-rule="evenodd" clip-rule="evenodd" d="M75.7576 11.6836C80.6532 11.3993 84.5351 13.2118 87.4037 17.1211C89.6488 21.3467 89.6488 25.576 87.4037 29.8086C83.8931 34.3045 79.3326 35.928 73.7223 34.6797C67.6381 32.0457 65.0375 27.4011 65.9206 20.7461C66.9934 17.1811 69.1417 14.5002 72.3655 12.7031C73.5333 12.4034 74.664 12.0635 75.7576 11.6836Z" fill="#F9EDE8"/>
<path fill-rule="evenodd" clip-rule="evenodd" d="M74.4007 13.043C80.9601 12.033 85.4451 14.6008 87.8559 20.7461C88.8654 27.4261 86.1895 31.7686 79.828 33.7734C75.0798 34.6831 71.2732 33.2104 68.4081 29.3555C65.0148 21.8877 67.0123 16.4502 74.4007 13.043Z" fill="#D81F1F"/>
<path fill-rule="evenodd" clip-rule="evenodd" d="M78.4712 23.6914C80.5254 25.2203 82.259 27.0328 83.6724 29.1289C83.012 30.4939 82.2205 30.5694 81.2979 29.3555C80.2425 27.845 79.1874 26.3347 78.132 24.8242C77.9933 24.3722 78.1064 23.9945 78.4712 23.6914Z" fill="#FFF5F4"/>
<path fill-rule="evenodd" clip-rule="evenodd" d="M83.4463 17.3477C82.5704 17.9562 80.6195 20.0664 80.7326 20.1797C80.8457 20.293 83.0026 18.1325 83.6724 17.3477C83.9042 17.4376 83.9419 17.5885 83.7855 17.8008C82.9449 18.7664 82.0781 19.7102 81.1849 20.6328C81.3357 20.7839 81.4863 20.7839 81.6371 20.6328C82.5976 19.785 83.4268 18.8412 84.1247 17.8008C84.4702 17.8046 84.5833 17.9558 84.4639 18.2539C83.7102 19.1602 82.9562 20.0664 82.2025 20.9727C81.4969 21.9111 80.5546 22.3266 79.3758 22.2188C77.1897 24.8621 75.0038 27.5051 72.8178 30.1484C71.565 30.2488 71.1504 29.6824 71.574 28.4492C73.998 26.1709 76.4102 23.9053 78.8104 21.6523C78.8857 21.0481 78.9613 20.4441 79.0366 19.8398C80.2426 18.707 81.4488 17.5742 82.6548 16.4414C82.8056 16.668 82.8056 16.8945 82.6548 17.1211C81.901 17.8762 81.1471 18.6316 80.3934 19.3867C80.2426 19.5378 80.2426 19.6887 80.3934 19.8398C81.3732 18.8581 82.3533 17.8762 83.3332 16.8945C83.4381 17.0291 83.4759 17.1802 83.4463 17.3477Z" fill="#FFEEED"/>
<path fill-rule="evenodd" clip-rule="evenodd" d="M72.3654 15.9883C72.5916 15.9883 72.8177 15.9883 73.0439 15.9883C73.0683 16.5055 73.2567 16.9586 73.6092 17.3477C74.9715 18.9764 76.2905 20.638 77.5666 22.332C77.1055 22.8529 76.5402 23.2306 75.8706 23.4648C73.2359 21.6596 72.0676 19.1674 72.3654 15.9883Z" fill="#FFF5F5"/>
<path fill-rule="evenodd" clip-rule="evenodd" d="M82.9939 38.8711C82.5193 39.123 81.9914 39.2741 81.411 39.3242C81.3859 39.1844 81.3105 39.0711 81.1848 38.9844C81.7832 38.8718 82.3863 38.8339 82.9939 38.8711Z" fill="#F05D71"/>
</g>
<defs>
<clipPath id="clip0_644_2239">
<rect width="160" height="40" fill="white"/>
</clipPath>
</defs>
</svg>
