<svg width="160" height="40" viewBox="0 0 160 40" fill="none" xmlns="http://www.w3.org/2000/svg">
<g clip-path="url(#clip0_644_2173)">
<path fill-rule="evenodd" clip-rule="evenodd" d="M112.392 11.887C115.24 15.8991 118.179 19.8495 121.211 23.738C121.225 23.8642 121.3 23.9415 121.437 23.9704C121.664 16.8461 121.739 9.71992 121.664 2.59214C121.792 1.56692 122.32 0.83123 123.247 0.384612C124.603 0.22962 125.96 0.22962 127.317 0.384612C128.033 0.810549 128.599 1.39148 129.013 2.1274C129.126 13.5134 129.164 24.8996 129.126 36.2861C128.684 37.1272 128.082 37.8244 127.317 38.3774C126.047 38.6267 124.766 38.6655 123.473 38.4936C122.884 38.2884 122.394 37.9398 122.003 37.4479C121.404 36.408 120.687 35.4786 119.854 34.6595C118.456 32.5597 116.948 30.5458 115.332 28.6178C112.019 23.9762 108.627 19.4061 105.155 14.9079C105.091 14.7245 104.978 14.5695 104.816 14.4431C104.703 21.4914 104.665 28.5399 104.703 35.5889C104.288 37.8007 102.969 38.8075 100.746 38.6098C100.094 38.5851 99.4527 38.5078 98.8236 38.3774C98.0672 38.1032 97.5774 37.5611 97.3537 36.7508C97.2029 25.1322 97.2029 13.5136 97.3537 1.89503C97.5034 1.55019 97.692 1.24044 97.9191 0.965541C99.7594 0.0795076 101.644 0.0407015 103.573 0.849355C106.567 4.50503 109.507 8.18417 112.392 11.887Z" fill="white"/>
<path fill-rule="evenodd" clip-rule="evenodd" d="M33.6958 0.268432C41.3094 0.229626 48.9228 0.268432 56.5358 0.384618C57.5179 0.619313 58.2341 1.20024 58.6841 2.12741C58.7969 3.2091 58.8347 4.29334 58.7972 5.38061C58.6683 6.40584 58.1407 7.14152 57.2142 7.58814C51.1089 7.70433 45.0032 7.74314 38.897 7.70433C38.897 10.3378 38.897 12.9715 38.897 15.605C43.571 15.5662 48.2446 15.605 52.9176 15.7212C54.5143 16.297 55.1927 17.4588 54.9528 19.2067C55.1649 21.0992 54.411 22.3386 52.6914 22.9247C48.0938 23.0409 43.4957 23.0797 38.897 23.0409C38.897 25.6743 38.897 28.308 38.897 30.9415C44.8523 30.9027 50.8075 30.9415 56.7619 31.0577C57.6156 31.3928 58.2562 31.9737 58.6841 32.8005C58.8349 34.0397 58.8349 35.2792 58.6841 36.5184C58.4654 37.2437 58.0509 37.7858 57.4403 38.145C57.0027 38.2961 56.5505 38.3735 56.0835 38.3774C48.4699 38.4162 40.8565 38.3774 33.2435 38.2612C32.6395 37.9708 32.1497 37.5448 31.7736 36.9832C31.3989 25.5389 31.3236 14.075 31.5475 2.59215C31.9989 1.54764 32.7151 0.773143 33.6958 0.268432Z" fill="white"/>
<path fill-rule="evenodd" clip-rule="evenodd" d="M2.26259 0.268429C7.46377 0.268429 12.6649 0.268429 17.8661 0.268429C19.4973 0.590961 21.0802 1.09451 22.615 1.77885C23.9248 2.69881 25.131 3.74448 26.2332 4.91586C26.7206 5.76147 27.2106 6.61357 27.7031 7.47195C29.8343 14.2872 27.9874 19.6317 22.1628 23.5056C24.2358 27.3009 26.3085 31.0965 28.3816 34.8918C28.8985 36.7764 28.2576 37.9382 26.4594 38.3774C25.0252 38.416 23.5931 38.3774 22.1628 38.2612C21.3181 37.721 20.7152 36.9853 20.3536 36.0537C18.5357 32.3962 16.6513 28.7556 14.7002 25.1322C12.2927 24.9001 9.88051 24.8227 7.46377 24.8998C7.50153 28.7735 7.46377 32.6464 7.3507 36.5184C7.01149 37.4867 6.37084 38.145 5.42853 38.4936C4.37585 38.6095 3.32069 38.6483 2.26259 38.6098C1.12602 38.2164 0.372302 37.4419 0.00120948 36.2861C-0.0365556 30.786 0.00120948 25.2865 0.114279 19.7877C0.57153 18.7373 1.28771 17.9628 2.26259 17.4639C7.53975 17.5027 12.8162 17.4639 18.0923 17.3478C20.7281 16.3095 21.8966 14.3344 21.5974 11.4223C21.0318 9.48546 19.7881 8.3236 17.8661 7.9367C12.4773 7.74336 7.04994 7.62718 1.58418 7.58814C0.230287 6.75183 -0.297519 5.5126 0.00120948 3.87019C-0.309731 2.30145 0.21785 1.1784 1.58418 0.500801C1.78567 0.359054 2.0118 0.281674 2.26259 0.268429Z" fill="white"/>
<path fill-rule="evenodd" clip-rule="evenodd" d="M68.5211 0.733169C68.6719 1.19791 68.8225 1.66266 68.9734 2.1274C68.8983 4.3017 68.9738 6.47043 69.1995 8.63381C69.3368 8.605 69.4121 8.52762 69.4256 8.40144C70.5681 7.54468 71.8494 7.00233 73.27 6.77484C73.6092 6.77484 74.853 6.31009 74.853 6.31009C77.3678 6.18484 79.8554 6.37864 82.3155 6.89102C83.5283 7.42153 84.7343 7.92508 85.9337 8.40144C85.6893 6.31823 85.6515 4.22688 85.8207 2.1274C86.1549 1.39729 86.6449 0.816359 87.2906 0.384612C88.4966 0.22962 89.7028 0.22962 90.9088 0.384612C91.6388 0.747809 92.1288 1.32874 92.3787 2.1274C92.454 6.77484 92.5295 11.4223 92.6048 16.0697C93.2346 17.3977 93.6491 18.7919 93.8486 20.2524C94.15 22.2664 94.15 24.2801 93.8486 26.2941C92.4436 32.5381 88.8254 36.7208 82.9939 38.8421C82.3863 38.804 81.7832 38.8428 81.1848 38.9583C81.3106 39.0473 81.3859 39.1635 81.411 39.3069C74.1666 40.8099 68.2493 38.6411 63.6591 32.8005C60.3966 27.2902 59.9821 21.5583 62.4154 15.605C62.6035 10.9973 62.7166 6.34983 62.7546 1.66266C63.0185 1.08173 63.433 0.65579 63.9983 0.384612C65.5555 0.155028 67.0632 0.271214 68.5211 0.733169Z" fill="#FD3734"/>
<path fill-rule="evenodd" clip-rule="evenodd" d="M157.62 0.268432C159.266 0.978792 159.945 2.25684 159.655 4.10257C159.984 5.94737 159.306 7.14803 157.62 7.70433C151.665 7.70433 145.71 7.70433 139.755 7.70433C139.68 10.3794 139.756 13.0131 139.981 15.605C144.655 15.5662 149.328 15.605 154.001 15.7212C155.424 16.372 156.028 17.4953 155.81 19.0905C156.127 20.9493 155.449 22.2273 153.775 22.9247C149.178 23.0409 144.58 23.0797 139.981 23.0409C139.756 25.7104 139.68 28.4214 139.755 31.1739C145.71 31.1739 151.665 31.1739 157.62 31.1739C158.008 31.2039 158.385 31.2812 158.75 31.4063C159.127 31.8338 159.467 32.2986 159.768 32.8005C159.919 34.0397 159.919 35.2792 159.768 36.5184C159.309 37.2602 158.744 37.8799 158.072 38.3774C150.232 38.3774 142.393 38.3774 134.553 38.3774C133.547 37.9417 132.906 37.1672 132.631 36.0537C132.518 24.9775 132.48 13.9012 132.518 2.82452C132.518 2.74714 132.518 2.66953 132.518 2.59215C132.848 1.44028 133.602 0.704594 134.78 0.384618C142.393 0.268432 150.006 0.229626 157.62 0.268432Z" fill="white"/>
<path fill-rule="evenodd" clip-rule="evenodd" d="M63.0938 3.98638C63.3948 5.76123 63.5456 7.62021 63.5461 9.5633C63.4708 11.4223 63.3953 13.2812 63.32 15.1402C63.094 11.4255 63.0185 7.70758 63.0938 3.98638Z" fill="#FF3D48"/>
<path fill-rule="evenodd" clip-rule="evenodd" d="M75.7575 10.9575C80.6532 10.6659 84.5351 12.5249 87.4036 16.5345C89.6487 20.8684 89.6487 25.2061 87.4036 29.5473C83.8931 34.1585 79.3325 35.8236 73.7223 34.5433C67.638 31.8417 65.0374 27.0781 65.9205 20.2524C66.9933 16.596 69.1416 13.8464 72.3654 12.0032C73.5332 11.6958 74.6639 11.3472 75.7575 10.9575Z" fill="#F9EDE8"/>
<path fill-rule="evenodd" clip-rule="evenodd" d="M74.4007 12.3518C80.9601 11.3158 85.4451 13.9495 87.8559 20.2524C88.8654 27.1037 86.1895 31.5575 79.828 33.6138C75.0798 34.5468 71.2732 33.0363 68.4081 29.0825C65.0148 21.4233 67.0123 15.8464 74.4007 12.3518Z" fill="#FE3E3B"/>
<path fill-rule="evenodd" clip-rule="evenodd" d="M78.4712 23.2732C80.5254 24.8413 82.259 26.7003 83.6724 28.8502C83.012 30.2502 82.2205 30.3276 81.2979 29.0825C80.2425 27.5333 79.1874 25.9843 78.132 24.4351C77.9933 23.9715 78.1064 23.5842 78.4712 23.2732Z" fill="#FFF5F4"/>
<path fill-rule="evenodd" clip-rule="evenodd" d="M83.4463 16.7668C82.5704 17.391 80.6195 19.5553 80.7326 19.6715C80.8457 19.7877 83.0026 17.5718 83.6724 16.7668C83.9042 16.8591 83.9419 17.0138 83.7855 17.2316C82.9449 18.2219 82.0781 19.19 81.1849 20.1362C81.3357 20.2912 81.4863 20.2912 81.6371 20.1362C82.5976 19.2667 83.4268 18.2986 84.1247 17.2316C84.4702 17.2355 84.5833 17.3905 84.4639 17.6963C83.7102 18.6258 82.9562 19.5553 82.2025 20.4848C81.4969 21.4473 80.5546 21.8734 79.3758 21.7628C77.1897 24.4739 75.0038 27.1848 72.8178 29.8958C71.565 29.9988 71.1504 29.4178 71.574 28.153C73.998 25.8163 76.4102 23.4926 78.8104 21.1819C78.8857 20.5622 78.9613 19.9427 79.0366 19.3229C80.2426 18.1611 81.4488 16.9992 82.6548 15.8373C82.8056 16.0697 82.8056 16.3021 82.6548 16.5345C81.901 17.309 81.1471 18.0837 80.3934 18.8582C80.2426 19.0132 80.2426 19.1679 80.3934 19.3229C81.3732 18.3161 82.3533 17.309 83.3332 16.3021C83.4381 16.4401 83.4759 16.5951 83.4463 16.7668Z" fill="#FFEEED"/>
<path fill-rule="evenodd" clip-rule="evenodd" d="M72.3654 15.3726C72.5916 15.3726 72.8177 15.3726 73.0439 15.3726C73.0683 15.9031 73.2567 16.3678 73.6092 16.7668C74.9715 18.4373 76.2905 20.1416 77.5666 21.879C77.1055 22.4132 76.5402 22.8006 75.8706 23.0409C73.2359 21.1893 72.0676 18.6332 72.3654 15.3726Z" fill="#FFF5F5"/>
<path fill-rule="evenodd" clip-rule="evenodd" d="M82.994 38.8421C82.5193 39.1005 81.9915 39.2555 81.411 39.3069C81.3859 39.1635 81.3106 39.0473 81.1849 38.9583C81.7832 38.8428 82.3863 38.804 82.994 38.8421Z" fill="#F05D71"/>
</g>
<defs>
<clipPath id="clip0_644_2173">
<rect width="160" height="40" fill="white"/>
</clipPath>
</defs>
</svg>
